<?xml version="1.0" standalone="no"?>
<!DOCTYPE svg PUBLIC "-//W3C//DTD SVG 1.1//EN" "http://www.w3.org/Graphics/SVG/1.1/DTD/svg11.dtd" >
<!--
2013-9-30: Created.
-->
<svg>
<metadata>
Created by iconfont
</metadata>
<defs>

<font id="iconfont" horiz-adv-x="1024" >
  <font-face
    font-family="iconfont"
    font-weight="500"
    font-stretch="normal"
    units-per-em="1024"
    ascent="896"
    descent="-128"
  />
    <missing-glyph />
    
    <glyph glyph-name="x" unicode="x" horiz-adv-x="1001"
d="M281 543q-27 -1 -53 -1h-83q-18 0 -36.5 -6t-32.5 -18.5t-23 -32t-9 -45.5v-76h912v41q0 16 -0.5 30t-0.5 18q0 13 -5 29t-17 29.5t-31.5 22.5t-49.5 9h-133v-97h-438v97zM955 310v-52q0 -23 0.5 -52t0.5 -58t-10.5 -47.5t-26 -30t-33 -16t-31.5 -4.5q-14 -1 -29.5 -0.5
t-29.5 0.5h-32l-45 128h-439l-44 -128h-29h-34q-20 0 -45 1q-25 0 -41 9.5t-25.5 23t-13.5 29.5t-4 30v167h911zM163 247q-12 0 -21 -8.5t-9 -21.5t9 -21.5t21 -8.5q13 0 22 8.5t9 21.5t-9 21.5t-22 8.5zM316 123q-8 -26 -14 -48q-5 -19 -10.5 -37t-7.5 -25t-3 -15t1 -14.5
t9.5 -10.5t21.5 -4h37h67h81h80h64h36q23 0 34 12t2 38q-5 13 -9.5 30.5t-9.5 34.5q-5 19 -11 39h-368zM336 498v228q0 11 2.5 23t10 21.5t20.5 15.5t34 6h188q31 0 51.5 -14.5t20.5 -52.5v-227h-327z" />
    

    
    <glyph glyph-name="renwufenpai-wode" unicode="&#58950;" d="M512 832c112.5 0 203.6-100.3 203.6-224 0-162.9-74.8-159.9-98.2-278.9C597.6 228 960 96.2 960 37.8V-43c0-10.2-9.3-21-21.6-21H83.1C71-64 64-54 64-44.5v82.3c0 55.7 362.6 189.7 342.9 289.4-23.6 119.7-98.5 119.1-98.5 280.8 0 123.7 91.1 224 203.6 224z"  horiz-adv-x="1024" />

    
    <glyph glyph-name="radio-yixuan" unicode="&#58951;" d="M756.7 561.4c-10.2 10.2-26.8 10.2-36.9 0L425 266.6 318.4 373.20000000000005c-10.4 10.4-27.3 10.4-37.8 0l-18.9-18.9c-10.4-10.4-10.4-27.3 0-37.8l143-143c6.9-6.9 16.7-9.2 25.6-7 4.5 1.1 8.9 3.4 12.4 6.9L775.2 506c10.2 10.2 10.2 26.7 0 36.9l-18.5 18.5zM512 832C264.6 832 64 631.4 64 384s200.6-448 448-448 448 200.6 448 448S759.4 832 512 832z m0-851.2c-222.7 0-403.2 180.5-403.2 403.2S289.3 787.2 512 787.2 915.2 606.7 915.2 384 734.7-19.200000000000045 512-19.200000000000045z"  horiz-adv-x="1024" />

    
    <glyph glyph-name="rate-yixuan" unicode="&#58952;" d="M794.4-34.39999999999998L515.5 95l-276-135.4 38 302.8L64 487.4l300.6 50.8L507.5 808.5l148.9-267.1L960 490.3 749.6 267.5l44.8-301.9z"  horiz-adv-x="1024" />

    
    <glyph glyph-name="rate-weixuan" unicode="&#58953;" d="M508.5 714.6l108.7-195 10.5-18.8 21.2-3.6L869.8 460 717.1 298.20000000000005l-14.9-15.8 3.2-21.5L738 41.200000000000045l-203.5 94.4-19.4 9-19.2-9.4-201.4-98.9L322 256.70000000000005l2.6 21-14.6 15.4-155.6 164.1L372.1 494l21.8 3.7 10.3 19.6 104.3 197.3m-1 93.9L364.6 538.2 64 487.4l213.5-225.1-38-302.8 276 135.5 278.9-129.4-44.7 301.9L960 490.3l-303.6 51.1L507.5 808.5z"  horiz-adv-x="1024" />

    
    <glyph glyph-name="renwufenpai-daichuli" unicode="&#58954;" d="M797.1 302.3H617.2c6.2 24.6 12.3 50.1 18.5 75.6 26.2 109.5 59.6 219.9 59.6 265.5C695.3 747.6 613.2 832 512 832c-101.2 0-183.3-84.4-183.3-188.6 0-45.6 33.4-155.9 59.6-265.4 6.1-25.6 12.2-51.1 18.5-75.8H226.9c-56.2 0-101.8-45.6-101.8-101.7v-122.1c0-22.5 18.2-40.7 40.8-40.7h692.3c22.5 0 40.7 18.2 40.7 40.7V200.5c0 56.2-45.6 101.8-101.8 101.8zM206.6-64h610.9v40.7H206.6V-64z"  horiz-adv-x="1024" />

    
    <glyph glyph-name="radio-weixuan" unicode="&#58955;" d="M512 832C264.6 832 64 631.4 64 384s200.6-448 448-448 448 200.6 448 448S759.4 832 512 832z m0-851.2c-222.7 0-403.2 180.5-403.2 403.2S289.3 787.2 512 787.2 915.2 606.7 915.2 384 734.7-19.200000000000045 512-19.200000000000045z"  horiz-adv-x="1024" />

    
    <glyph glyph-name="searchbar-search" unicode="&#58956;" d="M960-14.299999999999955L699.5 246.20000000000005c50.8 61.9 81.4 141.1 81.4 227.4 0 198-160.5 358.4-358.5 358.4S64 671.6 64 473.6c0-197.9 160.4-358.4 358.4-358.4 86.3 0 165.5 30.5 227.3 81.3L910.2-64l49.8 49.7zM422 180.79999999999995c-161.8 0-293 131.3-293 293.3s131.2 293.3 293.1 293.3c161.9 0 293-131.3 293-293.3S583.9 180.79999999999995 422 180.79999999999995z"  horiz-adv-x="1024" />

    
    <glyph glyph-name="searchbar-shaixuan" unicode="&#58957;" d="M380.7 357.70000000000005h578.1v78.8H380.7v-78.8z m0-315.4h578.1v78.8H380.7v-78.8z m0 709.5V673h578.1v78.8H380.7zM170.4 252.60000000000002H65.2l184-236.5V751.9h-78.8v-499.3z"  horiz-adv-x="1024" />

    
    <glyph glyph-name="searchbar-yixuan" unicode="&#58958;" d="M947 681.5l-31.3 31.3c-17.3 17.3-45.4 17.3-62.6 0L353.7 213.5 173.3 393.9c-17.6 17.7-46.3 17.7-64 0l-32.1-32c-17.7-17.7-17.7-46.3 0-64l242.5-242.5c8.9-8.9 20.5-13.3 32.1-13.2a45 45 0 0 1 16.9 3.3c5.5 2.2 10.6 5.5 15 10l32 32c0.9 0.9 1.8 1.9 2.7 2.9L947 618.9c17.3 17.3 17.3 45.3 0 62.6z"  horiz-adv-x="1024" />

    
    <glyph glyph-name="searchbar-shaixuan2" unicode="&#58959;" d="M888.5 744.4c-6.1 12.5-20 20.6-35.5 20.6H170.6c-15.2 0-29.5-8.3-35.4-20.4-5.4-10.6-3.9-22.3 4.5-35l228.1-339v-202.2c0-5.1 2-9.9 5.6-13.5l36-36.3c15.4-15.4 40.2-15.4 55.6 0 15.3 15.4 15.3 40.3 0 55.7L446.5 193V396.9c0 5.9-11.8 22.4-12.9 23.8L261.8 686.2H761L589.8 421c-6.6-6.7-12.2-15.9-12.2-24.1V42.299999999999955c0-21.8 17.6-39.4 39.3-39.4 21.7 0 39.3 17.6 39.3 39.4V396.9l225.7 310.3 1.5 2.2c4.4 6.5 8.6 12.6 8.6 21.5 0 4.7-1.3 9.6-3.5 13.5z"  horiz-adv-x="1024" />

    
    <glyph glyph-name="shenpiqingshi-bianji" unicode="&#58972;" d="M706.9 534.8l-94.4 94.6L348 364.5l94.5-94.6 264.4 264.9z m66.1 66.3c15.7 15.7 15.7 41.1 0 56.8l-37.8 37.8c-15.7 15.7-41 15.7-56.7 0l-47.2-47.3 94.5-94.6 47.2 47.3zM298.6 199.5L423.5 251l-94.4 94.6-51.4-125.1c-5.5-13.2 7.7-26.5 20.9-21z m499.6-64.4H225.8c-20.6 0-37.3-16.7-37.3-37.3v-24.9c0-20.6 16.7-37.3 37.3-37.3h572.4c20.6 0 37.3 16.7 37.3 37.3v24.9c0 20.6-16.7 37.3-37.3 37.3z"  horiz-adv-x="1024" />

    
    <glyph glyph-name="shenpiqingshi-tongyi" unicode="&#58973;" d="M860.4 657.8c-22.2 20.5-59.2-12.3-59.2-12.3l-413.7-386-179.8 152.1c-25.5 22-46.3 11.9-55.5 5.5-27.1-19.2-5.4-51.2-5.4-51.2l207.6-261.4c38.6-43.1 71.1-0.5 71.1-0.5l448.4 500.5c18.5 24.7-3.9 44.2-13.5 53.3z"  horiz-adv-x="1024" />

    
    <glyph glyph-name="shenpiqingshi-tuishen" unicode="&#58974;" d="M580.3 384l191.3 191.3c8.7 8.7 14.2 20.8 14.2 34.1 0 26.7-21.6 48.3-48.3 48.3-13.3 0-25.4-5.4-34.2-14.1L512 452.3 320.7 643.7c-8.7 8.7-20.8 14.1-34.2 14.1-26.7 0-48.3-21.6-48.3-48.3 0-13.3 5.4-25.4 14.1-34.1L443.6 384 252.3 192.70000000000005c-8.8-8.7-14.1-20.8-14.1-34.2 0-26.7 21.6-48.3 48.3-48.3 13.3 0 25.4 5.4 34.2 14.2L512 315.70000000000005l191.3-191.3c8.8-8.7 20.8-14.2 34.2-14.2 26.7 0 48.3 21.6 48.3 48.3 0 13.3-5.4 25.4-14.2 34.2L580.3 384z"  horiz-adv-x="1024" />

    
    <glyph glyph-name="shenpiqingshi-pinglun" unicode="&#58975;" d="M835.7 733H189.1c-27.5 0-50.1-22.7-50.1-50.2v-447.7c0-27.5 22.6-50.2 50.1-50.2h150.3c27 1 48.7 22.8 48.7 49.9 0 27.5-22.4 49.9-49.9 49.9l-0.2 0.1v0.2h-99V633h547v-348H598.4c-7.1 0-13.6-4-17.2-10.1l-97.3-163.6c-14.2-23.9-5.8-54.4 18.9-68.3 24.6-13.8 56.2-5.8 70.4 18.2L646.9 185h188.8c27.5 0 49.3 22.7 49.3 50.2V682.8c0 27.5-21.8 50.2-49.3 50.2z"  horiz-adv-x="1024" />

    
    <glyph glyph-name="shenpiqingshi-guanbi" unicode="&#58976;" d="M512 766.5c-206.2 0-373.3-167.1-373.3-373.3 0-206.2 167.1-373.3 373.3-373.3 206.2 0 373.3 167.1 373.3 373.3 0 206.1-167.1 373.3-373.3 373.3z m0-647.1c-151.2 0-273.8 122.6-273.8 273.8C238.2 544.4 360.8 667 512 667c151.2 0 273.8-122.6 273.8-273.8C785.7 242 663.2 119.39999999999998 512 119.39999999999998z m99.5 323.5H412.4c-27.5 0-49.8-22.3-49.8-49.8 0-27.5 22.3-49.8 49.8-49.8h199.1c27.5 0 49.8 22.3 49.8 49.8 0 27.6-22.3 49.8-49.8 49.8z"  horiz-adv-x="1024" />

    
    <glyph glyph-name="shenpiqingshi-gengduo" unicode="&#58977;" d="M188.4 458.7c-41.2 0-74.7-33.4-74.7-74.7 0-41.2 33.4-74.7 74.7-74.7 41.2 0 74.7 33.4 74.7 74.7 0 41.2-33.4 74.7-74.7 74.7z m323.6 0c-41.2 0-74.7-33.4-74.7-74.7 0-41.2 33.4-74.7 74.7-74.7 41.2 0 74.7 33.4 74.7 74.7 0 41.2-33.5 74.7-74.7 74.7z m323.6 0c-41.2 0-74.7-33.4-74.7-74.7 0-41.2 33.4-74.7 74.7-74.7 41.2 0 74.7 33.4 74.7 74.7-0.1 41.2-33.5 74.7-74.7 74.7z"  horiz-adv-x="1024" />

    
    <glyph glyph-name="shenpiqingshi-zhuanshen" unicode="&#58978;" d="M860.7 559.5L698.1 722.2c-14.2 14.2-37.2 14.2-51.4 0-14.1-14.2-14.1-37.2 0-51.4l62.8-62.8H424.9c-144.3 0-261.3-117.2-261.3-261.5S280.6 85 424.9 85H562v0.3c27 0 49.7 22.3 49.7 49.8S589 184.89999999999998 562 184.89999999999998v0.1H424.9c-89.4 0-161.8 72.2-161.8 161.5S335.5 508 424.9 508h224c4.3 0 8.1-0.5 12.1-0.8v0.8h48.1l-62.5-62c-14.1-14.1-14.1-37 0-51.1 14.2-14.2 37.2-14.1 51.4 0.1l162.6 162.1-1.2 1.2 1.3 1.2z"  horiz-adv-x="1024" />

    
    <glyph glyph-name="shenpiqingshi-" unicode="&#58979;" d="M776.7 160s-66.2-101.8-244.4-101.8C331.6 58.2 206.5 174 206.5 384c0 162.7 116.5 325.8 305.5 325.8 166.9 0 305.5-109.6 305.5-264.7v-20.4c0-132.4-108.1-203.6-162.9-203.6-15.3 0-20.4 3.9-20.4 40.7 18.8 135.8 81.5 305.5 81.5 305.5h-61.1l-20.4-61.1C614.5 581.5 554.3 608 512 608c-128.4 0-224-125.8-224-244.4 0-164.8 121.1-224 183.3-224 65.9 0 122.2 61.1 122.2 61.1 0-22.6 38.5-40.7 61.1-40.7 60.3 0 224 70.4 224 285.1 0 200.3-188.2 325.8-366.5 325.8-204.9 0-366.5-172-366.5-386.9 0-250.7 171.7-386.9 386.9-386.9 108.6 0 182.8 21.3 264.7 101.8 4.8 4.7 19.9 22.7 18.9 37.4-1.7 24-24.8 37.7-39.4 23.7z m-305.4 40.7c-35.5 0-122.2 30.5-122.2 162.9 0 90.5 74.6 183.3 162.9 183.3 52 0 81.5-51 81.5-142.5-0.1-91.4-49.9-203.7-122.2-203.7z"  horiz-adv-x="1024" />

    
    <glyph glyph-name="shenpiqingshi-tupian" unicode="&#58980;" d="M858.2 730.2H165.8c-22.5 0-40.7-18.2-40.7-40.7v-610.9c0-22.5 18.2-40.7 40.7-40.7h692.4c22.5 0 40.7 18.2 40.7 40.7V689.5c0 22.4-18.2 40.7-40.7 40.7z m-20.4-61.1v-384.9c-37.5 35.1-112 89.5-135.9 89.5-22.9 0-67-27.9-67-45.8 13.5-16.7 27.5-42.4 44.7-68.8 24.4-37.3 4.9-50.4 0-68.8-42.6 54.5-214.9 275.1-267.3 275.1-34.7 0-173.5-163.7-226.1-227.3v431h651.6z"  horiz-adv-x="1024" />

    
    <glyph glyph-name="shenpiqingshi-dingwei" unicode="&#58981;" d="M511.9 771.2c-187.4 0-325.7-133.5-325.7-326.2 0-204.8 325.7-448.1 325.7-448.1S837.6 240.2 837.6 445c0 192.7-138.3 326.2-325.7 326.2z m0.1-692.4s-264.7 211-264.7 366.3c0 155.2 122.2 265 264.7 265s264.8-109.7 264.8-265C776.7 289.8 512 78.8 512 78.8z m-0.1 488.4c-67.4 0-121.9-54.7-121.9-122.1 0-67.5 54.6-122.1 121.9-122.1 67.3 0 121.9 54.7 121.9 122.1 0 67.4-54.6 122.1-121.9 122.1z"  horiz-adv-x="1024" />

    
    <glyph glyph-name="shenpiqingshi-biaoqing" unicode="&#58982;" d="M512 770.9c-213.7 0-386.9-173.2-386.9-386.9S298.3-2.9 512-2.9 898.9 170.3 898.9 384 725.7 770.9 512 770.9z m0-712.7c-179.9 0-325.8 145.9-325.8 325.8S332.1 709.8 512 709.8 837.8 563.9 837.8 384 691.9 58.2 512 58.2zM379.6 455.3m-50.9 0a50.9 50.9 0 1 1 101.8 0 50.9 50.9 0 1 1-101.8 0ZM644.4 455.3m-50.9 0a50.9 50.9 0 1 1 101.8 0 50.9 50.9 0 1 1-101.8 0ZM626.8 284.5c-12.3 6.5-27.6 1.6-34.3-10.6-0.9-1.6-21.2-37.8-80.5-37.8-57.1 0-79.7 36.7-80.9 38.7-6.9 12.1-22.3 16.4-34.5 9.6-12.3-6.9-16.7-22.4-9.8-34.6 1.5-2.6 37-64.6 125.3-64.6 91.7 0 124.4 62.8 125.8 65.5 6.1 12.3 1.2 27.3-11.1 33.8z"  horiz-adv-x="1024" />

    
    <glyph glyph-name="shenpiqingshi_shenpiqingshi-niming" unicode="&#58983;" d="M837.8 730.2H186.2c-22.5 0-40.7-18.2-40.7-40.7v-325.8c0-202.4 164.1-366.5 366.5-366.5s366.5 164.1 366.5 366.5V689.5c0 22.4-18.2 40.7-40.7 40.7z m-20.3-366.6c0-168.7-136.8-305.5-305.5-305.5S206.5 194.9 206.5 363.6V669.1h610.9v-305.5z m-81.4 71.1c-68.1 29.8-153.3-7.2-183.2-55.7 72.9-34.6 145.2-6.6 183.2 55.7z m-265-55.9c-29.9 48.6-115.1 85.7-183.2 55.9 37.9-62.5 110.3-90.5 183.2-55.9z"  horiz-adv-x="1024" />

    
    <glyph glyph-name="shenpiqingshi_wode" unicode="&#58984;" d="M597.9 339.3c19 96.9 80 94.5 80 227.2C677.9 667.3 603.6 749 512 749c-91.6 0-165.9-81.7-165.9-182.5 0-131.8 61.1-131.3 80.3-228.8 16-81.2-279.4-190.4-279.4-235.8v-67c0-7.8 5.7-15.9 15.6-15.9h696.9c10 0 17.6 8.8 17.6 17.1V102c-0.1 47.5-295.4 154.9-279.2 237.3z"  horiz-adv-x="1024" />

    
    <glyph glyph-name="shenpiqingshi_xinjian" unicode="&#58985;" d="M704 405.3H533.3V576c0 11.8-9.6 21.3-21.3 21.3-11.8 0-21.3-9.6-21.3-21.3v-170.7H320c-11.8 0-21.3-9.6-21.3-21.3 0-11.8 9.5-21.3 21.3-21.3h170.7V192c0-11.8 9.6-21.3 21.3-21.3 11.8 0 21.3 9.6 21.3 21.3V362.7H704c11.8 0 21.3 9.6 21.3 21.3 0 11.8-9.5 21.3-21.3 21.3zM512 832C264.6 832 64 631.4 64 384s200.6-448 448-448 448 200.6 448 448S759.4 832 512 832z m0-855.3C287-23.3 104.7 159 104.7 384S287.1 791.3 512 791.3c225 0 407.3-182.4 407.3-407.3 0-225-182.3-407.3-407.3-407.3z"  horiz-adv-x="1024" />

    
    <glyph glyph-name="shenpiqingshi_daichuli" unicode="&#58986;" d="M744.2 317.4H597.7c5.1 20.1 10.1 40.8 15 61.6 21.4 89.3 48.6 179.2 48.6 216.3 0 84.9-66.8 153.7-149.3 153.7-82.5 0-149.3-68.8-149.3-153.7 0-37.2 27.2-127 48.5-216.2 5-20.8 10-41.6 15.1-61.7H279.6c-45.8 0-83-37.1-83-82.9V135c0-18.3 14.9-33.2 33.2-33.2H794c18.3 0 33.2 14.8 33.2 33.2v99.5c0 45.8-37.1 82.9-83 82.9zM263.1 19h497.8v33.2H263.1V19z"  horiz-adv-x="1024" />

    
    <glyph glyph-name="peixunxuexi_bofang" unicode="&#58987;" d="M890 418.5L256.4 782.4c-37.6 21.6-84.5-5.4-84.5-48.5v-727.8c0-43.1 46.9-70.1 84.5-48.5L890 321.5c37.6 21.6 37.6 75.5 0 97z"  horiz-adv-x="1024" />

    
    <glyph glyph-name="peixunxuexi_faxianoff" unicode="&#58988;" d="M476.1 734.2c-164.7-16.3-298-149.5-314.3-314.3C139.7 197.29999999999995 325.3 11.700000000000045 548 33.799999999999955c164.7 16.3 297.9 149.6 314.2 314.3 22.1 222.6-163.5 408.1-386.1 386.1z m354.3-382.9c-14.8-149.8-136-270.9-285.7-285.7-202.4-20-371.1 148.7-351 351 14.8 149.8 136 270.9 285.7 285.7 202.4 20.1 371-148.6 351-351zM485 590.3c-92.7-11.7-167.6-86.5-179.3-179.2C288.5 275 403 160.5 539.1 177.70000000000005c92.7 11.7 167.5 86.6 179.2 179.3C735.4 493 621 607.4 485 590.3z m200.6-236.1c-12-72.9-70.8-131.8-143.7-143.7-120.5-19.8-223.1 82.9-203.4 203.4 12 72.9 70.8 131.8 143.7 143.7 120.5 19.7 223.1-83 203.4-203.4z"  horiz-adv-x="1024" />

    
    <glyph glyph-name="peixunxuexi_faxianon" unicode="&#58989;" d="M512 736c-194.4 0-352-157.6-352-352s157.6-352 352-352 352 157.6 352 352-157.6 352-352 352z m0-672c-176.7 0-320 143.3-320 320s143.3 320 320 320 320-143.3 320-320-143.2-320-320-320z m0 528c-114.9 0-208-93.1-208-208s93.1-208 208-208 208 93.1 208 208-93.1 208-208 208z"  horiz-adv-x="1024" />

    
    <glyph glyph-name="peixunxuexi_kaoshioff" unicode="&#58990;" d="M320 464h224c8.8 0 16 7.2 16 16s-7.2 16-16 16H320c-8.8 0-16-7.2-16-16s7.2-16 16-16z m384 256H224c-35.3 0-64-28.7-64-64v-544c0-35.3 28.7-64 64-64h480c35.3 0 64 28.7 64 64V656c0 35.3-28.6 64-64 64z m32-608c0-17.7-14.3-32-32-32H224c-17.7 0-32 14.3-32 32V656c0 17.7 14.3 32 32 32h480c17.7 0 32-14.3 32-32v-544z m112 512c-8.8 0-16-7.2-16-16v-448c0-8.8 7.2-16 16-16s16 7.2 16 16V608c0 8.8-7.1 16-16 16zM608 320H320c-8.8 0-16-7.2-16-16s7.2-16 16-16h288c8.8 0 16 7.2 16 16s-7.1 16-16 16z"  horiz-adv-x="1024" />

    
    <glyph glyph-name="peixunxuexi_kaoshion" unicode="&#58991;" d="M704 720H224c-35.3 0-64-28.7-64-64v-544c0-35.3 28.7-64 64-64h480c35.3 0 64 28.7 64 64V656c0 35.3-28.6 64-64 64zM320 496h224c8.8 0 16-7.2 16-16s-7.2-16-16-16H320c-8.8 0-16 7.2-16 16s7.2 16 16 16z m288-208H320c-8.8 0-16 7.2-16 16s7.2 16 16 16h288c8.8 0 16-7.2 16-16s-7.1-16-16-16z m240 336c-8.8 0-16-7.2-16-16v-448c0-8.8 7.2-16 16-16s16 7.2 16 16V608c0 8.8-7.1 16-16 16z"  horiz-adv-x="1024" />

    
    <glyph glyph-name="peixunxuexi_renshu" unicode="&#58992;" d="M922.3 12.9c-19.5 139.7-124.4 253.5-263.9 301.2 62.5 44.3 103.3 117.1 103.3 199.1 0 134.7-110 244.3-245.1 244.3-135.2 0-245.1-109.6-245.1-244.3 0-80.8 39.6-152.6 100.4-197-142.6-46.4-250.4-161.5-270.2-303.3-2.6-18.9 10.4-36.5 29.1-39.1 18.7-2.7 36 10.5 38.7 29.5C190.5 154.7 337.8 269 511.9 269c174.1 0 321.4-114.2 342.5-265.7 2.4-17.3 17.1-29.8 33.9-29.8 1.6 0 3.2 0.1 4.8 0.3 18.8 2.7 31.8 20.2 29.2 39.1zM339.8 513.2c0 96.5 79.2 175 176.7 175 97.4 0 176.7-78.5 176.7-175s-79.2-175-176.7-175c-97.4 0-176.7 78.5-176.7 175z"  horiz-adv-x="1024" />

    
    <glyph glyph-name="peixunxuexi_shijian" unicode="&#58993;" d="M512 800C273.4 800 80 606.6 80 368s193.4-432 432-432 432 193.4 432 432S750.5 800 512 800z m0-800c-203.2 0-368 164.8-368 368s164.8 368 368 368 368-164.8 368-368-164.7-368-368-368z m178 263.4l-162 94V575c0 18.2-14.3 33-32 33s-32-14.8-32-33v-231.3c0-0.8 0-1.5 0.1-2.3-0.9-11.9 4.9-23.7 15.9-30.1L658 208c15.3-8.8 34.8-3.6 43.7 11.7 8.8 15.3 3.6 34.9-11.7 43.7z"  horiz-adv-x="1024" />

    
    <glyph glyph-name="peixunxuexi_suoding" unicode="&#58994;" d="M785.8 508.4H736v49.8c0 123.7-100.3 224-224 224s-224-100.3-224-224v-49.8h-49.8c-27.5 0-49.8-22.3-49.8-49.8v-423.1c0-27.5 22.3-49.8 49.8-49.8h547.6c27.5 0 49.8 22.3 49.8 49.8V458.7c0 27.5-22.3 49.7-49.8 49.7z m-448 49.8c0 96.2 78 174.2 174.2 174.2 96.2 0 174.2-78 174.2-174.2v-49.8H337.8v49.8z m448-497.8c0-13.7-11.1-24.9-24.9-24.9H263.1c-13.7 0-24.9 11.1-24.9 24.9V433.8c0 13.7 11.1 24.9 24.9 24.9h497.8c13.7 0 24.9-11.1 24.9-24.9v-373.4zM487.1 160h49.8V334.2h-49.8V160z"  horiz-adv-x="1024" />

    
    <glyph glyph-name="peixunxuexi_wodeon" unicode="&#58995;" d="M512 400c88.4 0 160 71.6 160 160s-71.6 160-160 160-160-71.6-160-160 71.7-160 160-160z m73.1-31.9H438.7C302.6 368.1 192 261.6 192 130.70000000000005v-14.1c0-68.4 108.9-68.4 246.7-68.4h146.4c132.4 0 246.8 0 246.8 68.4v14.1c0 130.9-110.7 237.4-246.8 237.4zM528 192h-32l-16 128h64l-16-128z"  horiz-adv-x="1024" />

    
    <glyph glyph-name="peixunxuexi_tuijian" unicode="&#58996;" d="M517.4 421.1c-9.9 0-18.4-3.5-25.7-10.5-7.2-7-10.8-15.6-10.8-25.9 0-9.9 3.6-18.4 10.8-25.6 7.2-7.2 15.8-10.8 25.7-10.8 10.3 0 18.9 3.6 26 10.8 7.1 7.2 10.6 15.7 10.6 25.6 0 10.2-3.5 18.9-10.6 25.9s-15.7 10.5-26 10.5z m-142.1 0c-9.9 0-18.4-3.5-25.4-10.5s-10.5-15.4-10.5-25.3 3.5-18.4 10.5-25.6c7.1-7.2 15.5-10.8 25.4-10.8 10.3 0 18.9 3.6 26 10.8 7.1 7.2 10.6 15.7 10.6 25.6 0 9.8-3.5 18.3-10.6 25.3s-15.7 10.5-26 10.5z m284.3-1.1c-9.9 0-18.3-3.4-25.1-10.2-6.8-6.8-10.3-15.2-10.3-25 0-9.9 3.5-18.3 10.3-25.3 6.9-7 15.2-10.5 25.1-10.5 9.9 0 18.4 3.5 25.4 10.5s10.6 15.4 10.6 25.3-3.5 18.2-10.6 25c-7.1 6.8-15.6 10.2-25.4 10.2zM512 832C264.6 832 64 631.4 64 384s200.6-448 448-448 448 200.6 448 448S759.4 832 512 832z m236.9-535.9c-11.6-28.8-27.8-54.3-48.5-76.5-20.7-22.2-45.1-40.5-73.1-54.9-28-14.4-58.1-23.3-90.5-26.7-8.4-1.2-17.3-2.1-26.8-2.9-9.5-0.7-20.1-1.3-31.7-1.7-11.6-0.4-24.5-0.4-38.8 0-14.3 0.4-30.4 1.5-48.2 3.4-39.6 3.8-69 8.7-88.2 14.8-19.2 6.1-25.3 7.1-23.1 10.2 11 14.9 36.3 37.4 50.2 56.3-19.4 21.2-35.1 46-47.1 74.2-12 28.2-18.4 58.6-19.1 91.3-0.3 34.5 5.9 66.9 18.9 97.2 12.9 30.3 30.6 56.9 53.1 79.6 22.4 22.7 48.9 40.8 79.4 54 30.4 13.3 63 20.1 97.6 20.5 34.6 0.4 67.2-5.9 97.6-18.8 30.4-12.9 57.2-30.4 80.2-52.6 23-22.2 41.2-48.3 54.5-78.5 13.3-30.1 20.2-62.5 20.5-96.9 0.3-32.5-5.3-63.2-16.9-92z"  horiz-adv-x="1024" />

    
    <glyph glyph-name="peixunxuexi_wodeoff" unicode="&#58997;" d="M512.8 400c88.4 0 160.1 71.6 160.1 160s-71.7 160-160.1 160-160.1-71.6-160.1-160 71.7-160 160.1-160z m0 288c70.7 0 128.1-57.3 128.1-128s-57.4-128-128.1-128c-70.7 0-128.1 57.3-128.1 128S442 688 512.8 688z m68.8-320H442.5c-138.2 0-250.6-103.2-250.6-230v-12.8c0-77.2 94.3-77.2 250.6-77.2h139.1c156.3 0 250.6 0 250.6 77.2V138c0 126.8-112.4 230-250.6 230zM800 125.20000000000005c0-44.7-70.9-46.7-218.4-46.7H442.5c-151.4 0-218.4 1.9-218.4 46.7V138c0 110 98 199.5 218.4 199.5h139.1C702 337.5 800 248 800 138v-12.8z"  horiz-adv-x="1024" />

    
    <glyph glyph-name="peixunxuexi_zhiboon" unicode="&#58998;" d="M869 592c-9.8 0-19.9-2.7-29.3-8.5L736 519.4V608c0 35.3-28.7 64-64 64H176c-35.3 0-64-28.7-64-64v-448c0-35.3 28.7-64 64-64h496c35.3 0 64 28.7 64 64v88.6l103.6-64.1c9.5-5.9 19.5-8.5 29.3-8.5 30.8 0 59 26.3 59 63.2V528.9c0.1 36.8-28.2 63.1-58.9 63.1zM489.2 380.70000000000005L387.3 278.79999999999995c-6.3-6.2-16.4-6.2-22.6 0-6.3 6.3-6.3 16.4 0 22.6l90.5 90.5-90.5 90.5c-6.3 6.2-6.3 16.4 0 22.6 6.2 6.2 16.4 6.2 22.6 0l101.8-101.8c6.3-6.2 6.3-16.3 0.1-22.5z"  horiz-adv-x="1024" />

    
    <glyph glyph-name="peixunxuexi_zhibooff" unicode="&#58999;" d="M869 592c-9.8 0-19.9-2.7-29.3-8.5L736 519.4V608c0 35.3-28.7 64-64 64H176c-35.3 0-64-28.7-64-64v-448c0-35.3 28.7-64 64-64h496c35.3 0 64 28.7 64 64v88.6l103.6-64.1c9.5-5.9 19.5-8.5 29.3-8.5 30.8 0 59 26.3 59 63.2V528.9c0.1 36.8-28.2 63.1-58.9 63.1zM704 160c0-17.7-14.3-32-32-32H176c-17.7 0-32 14.3-32 32V608c0 17.7 14.3 32 32 32h496c17.7 0 32-14.3 32-32v-448z m192 63.1c0-15.9-19.8-17.5-27-15.2-1.2 0.4-2.6 0.4-4.1 1.4L736 289V479l128.8 79.7c2.2 1.4 3.6 1.4 4.1 1.4 3.8 0 27 4.5 27-31.2v-305.8z m-508.7 282c-6.3 6.2-16.4 6.2-22.6 0-6.3-6.3-6.3-16.4 0-22.6l90.5-90.5-90.5-90.5c-6.3-6.3-6.3-16.4 0-22.6 6.2-6.2 16.4-6.2 22.6 0l101.8 101.8c6.3 6.3 6.3 16.4 0 22.6L387.3 505.1z"  horiz-adv-x="1024" />

    
    <glyph glyph-name="peixunxuexi_zhibozhong" unicode="&#59000;" d="M64 64h128V192H64v-128z m256 0h128V576H320v-512z m256 0h128V704H576v-640z m256 160v-160h128V224H832z"  horiz-adv-x="1024" />

    
    <glyph glyph-name="peixunxuexi_xuexirenwuon" unicode="&#59001;" d="M800 720H224c-35.3 0-64-28.7-64-64v-544c0-35.3 28.7-64 64-64h576c35.3 0 64 28.7 64 64V656c0 35.3-28.6 64-64 64zM690.7 476.3l-215-215c-6.2-6.3-16.4-6.3-22.6 0L317.3 397.1c-6.2 6.3-6.2 16.4 0 22.6 6.3 6.3 16.4 6.3 22.6 0l124.5-124.4 203.7 203.6c6.2 6.3 16.4 6.3 22.6 0 6.2-6.3 6.2-16.4 0-22.6z"  horiz-adv-x="1024" />

    
    <glyph glyph-name="peixunxuexi_tiaozhuan" unicode="&#59002;" d="M853.1 397.3L645.4 601.1c-9.6 9.4-25.1 9.4-34.6 0s-9.5-24.6 0-34L772 408.9H163.5c-13.8 0-24.9-11.1-24.9-24.9 0-13.7 11.1-24.9 24.9-24.9h616l-186-182.6c-9.6-9.4-9.6-24.6 0-34 9.6-9.4 25.1-9.4 34.6 0L853 363.3c9.6 9.4 9.6 24.6 0.1 34z"  horiz-adv-x="1024" />

    
    <glyph glyph-name="peixunxuexi_xuexirenwuoff" unicode="&#59003;" d="M800 720H224c-35.3 0-64-28.7-64-64v-544c0-35.3 28.7-64 64-64h576c35.3 0 64 28.7 64 64V656c0 35.3-28.6 64-64 64z m32-608c0-17.7-14.3-32-32-32H224c-17.7 0-32 14.3-32 32V656c0 17.7 14.3 32 32 32h576c17.7 0 32-14.3 32-32v-544zM668.1 498.9L464.4 295.29999999999995 340 419.7c-6.2 6.3-16.4 6.3-22.6 0-6.2-6.2-6.2-16.4 0-22.6l135.8-135.8c6.3-6.3 16.4-6.3 22.6 0l215 215c6.2 6.2 6.2 16.4 0 22.6-6.4 6.2-16.5 6.2-22.7 0z"  horiz-adv-x="1024" />

    
    <glyph glyph-name="shenpiqingshi_qianming" unicode="&#59004;" d="M217.6 532.8L115.2 371.2l29.5-51.2H163l-28.6 51.2 76.8 125.6V409c-14.6-3-25.6-15.9-25.6-31.4 0-17.7 14.3-32 32-32s32 14.3 32 32c0 15.5-11 28.4-25.6 31.4v87.7l76.8-125.5-31.3-51.2h18.9l31.6 51.2-102.4 161.6z m19.2-155.2c0-10.6-8.6-19.2-19.2-19.2s-19.2 8.6-19.2 19.2 8.6 19.2 19.2 19.2 19.2-8.6 19.2-19.2z m-19.2-51.2c-38.9 0-64-31.5-64-70.4v-25.6h128V256c0 38.9-25.1 70.4-64 70.4z m51.2-83.2H166.4v12.4c0 28.5 22.9 58 51.2 58 28.3 0 51.2-29.5 51.2-58v-12.4zM566.7 412.7c2.1 0 3.8 1 4.9 2.8 1.6 2.2 4.1 5.9 7.2 10.8l0.2 0.4v1.4c1 3.3 2.7 7.8 5.7 13.3 0.3 0.3 0.6 0.7 0.8 1 16.8-8.2 28.9-13.3 35.9-15.4l0.2 0.1h0.2c5.5 0 6.3 2.8 6.3 4.6 0 1.2-0.7 2.1-1.8 2.4-1.9 2.9-5.6 5.4-11.1 7.5-3.3 2-6 3.8-8.2 5.4 1.1 0.3 2.5 0.8 4.3 1.5 3.8 0.8 5.1 1 5.6 1 1.4 0 2.7-0.5 4.2-1.1l0.3-0.3h12.5l0.2 0.2c6.9 2.1 7.7 6.2 7.1 9.2-0.1 2.9-1.8 4.4-4.9 4.4-6.4 1.4-15.4 3.1-26.6 3.1h-7.2c-1.7 0-4.1 0-7.4-1h-5c0.6 2 1.2 4.9 1.8 8.1v0.3c0 4.1 0.4 7.3 1.1 9.2l0.2 0.5-0.2 0.5c-1 2.8-3.3 4-6.4 3.1-2.6 0-5.2-0.8-7.8-2.4l-0.7-0.4-0.1-0.8c-2.4-26.3-8.6-47.5-18-63.1l-0.4-0.4v-1.8l0.3-0.2c1.4-2.5 3.8-3.9 6.8-3.9zM649.3 359.1c-4.8 4.3-8.9 7.3-12.3 8.8-3.3 2.2-8.4 5-15.6 8.6-13.5 7.8-23.9 13.6-31.1 17.2-3 2.7-4.4 3.1-5.3 3.3l-2.5 0.9h-0.3c-0.4 0-0.3 0.4-1.3 0.5v0.6l-0.9 0.3c-2.2 0.7-5.7 2.4-10.4 5.2l-0.1 0.1c-9.7 4.7-17.5 7.6-23.1 8.6 0.1 0.2 0.3 0.5 0.7 0.8 1.6 1.5 2.5 2.6 2.8 3.6 0.7 0.7 1.1 1.4 1.2 2.2l0.7 0.6c5.2 3.7 6.3 5.1 6.5 6.1l1.4 2.5-0.2 0.6c-1 2.7-3.8 4.4-8.3 5.3h-0.3c-0.6 0-1.5 0-2.4-0.2-0.5 2.3-1.8 4.4-3.8 6.3-0.9 0.8-2.5 1.9-5 3.4-9.7 6.5-17.1 10.7-22 12.2l-0.2 0.2h-1.1c-4.8 2-9 3-12.3 3h-1.2l-0.3-0.1c-3.4-0.8-4.8-1-5.4-1-0.1 0.8-0.5 1.9-1.2 3.3-0.9 7.9-3.4 11.8-7.5 11.8-6.5 0-7.7-3.6-7.7-5.8 0-1.6 1-3.4 1-5.7v-11.1c-1-2.3-2.2-4.6-2.2-7 0-0.2 0-0.8-0.9-2.5-1.8-2.7-3.3-5.4-2.8-7.2-5-8.9-6.2-10.5-6.5-10.8l-0.2-0.2-0.1-0.2c-0.8-1.4-2.1-3.4-4.4-6.2-3.5-3.1-5-6.4-5-9.7v-4.7h1.1c0.5 0 1-0.3 1.4-0.7l0.4-0.3h1.8c2 0 5.5 1.5 14.4 13.6 5.1 7.7 9.6 14 13.4 19.4l0.5 0.4v0.5c0 0.1-0.1 1 0.9 3.8l-0.1 0.1c1.4 5.1 4 7.5 8.1 7.5 8.4 0 20.2-5.7 35.1-17l0.1-0.1c2.1-1.3 3.3-2.1 4-2.6l-12.9-17.9c-1.3-1.8-2.9-2.6-4.8-2.6-2.1 0-3 0.3-3.5 0.5-0.4 1-1.6 2.7-5 6.5-2.4 2.9-4.1 4.7-5 5.6-0.4 0.3-1.3 1.4-3.3 5-3.6 6.4-6.7 9.4-9.7 9.4-2.8 0-4.6-0.5-5.7-1.5l-0.4-0.4v-3.9c0-6.2 3.7-12.7 11.2-19.5 0.8-0.7 3.6-3 9.4-7.5 0.8-1.5 1.7-2.6 2.5-3.4l0.3-0.3 0.4-0.1c4.2-0.6 5.4-1.4 5.8-1.7l-53.8-107.7v-0.3c-0.8-6.2-4.7-15.1-11.8-26.3-0.6-0.8-1.2-1.6-1.7-2.3-0.1 0.3-0.2 0.3-0.4 0.6-0.2 3-2.1 3.1-2.7 3.1H448v-1.1c0-0.2-0.4-0.6-0.9-1.1l-0.3-0.2-0.2-0.2c-3.4-6-5-10.2-5-12.6v-0.1c0.3-3.3 1.3-13.2 7.5-13.2 6.3 0 10.8 5.8 13.4 17.2 2.3 4.1 5.3 9.9 9.5 18.2 6.4 11.5 10.9 20.7 13.3 27.2v0.1c0.7 2.7 2.3 6.6 4.7 11.6l0.1 0.1c7 19.5 14 33.1 20.9 41.1h14.8c6.3-1 11.2-1 14.5-1h13.8c-1.1-1-2.1-2.3-2.1-5v-13.5l0.3-0.4c1.5-2.1 3.6-5.9 5.9-11.5 1.6-5 2.8-8.9 4.8-11.8v-0.7c0-0.3-0.2-0.2-0.2-0.2h-0.2l-0.4-0.6c-0.3-0.3-1.8-1.6-8.2-5.4l-4.6-3.1c-3-0.9-3.9-0.9-4.1-0.9h-0.3c-0.4 1-1.1 1.5-2.2 2.5-0.5 1.4-1.3 2.8-2.4 3.5-0.2 0.5-0.7 0.9-1.2 1.2-0.4 1.1-1.3 3.3-3.5 8-4.1 9.5-6.4 14.8-7.3 16.3l-0.1 0.2-0.2 0.2c-0.3 0.3-1.1 1.2-2 3.7-1.9 5.8-4.3 8.6-7.4 8.6-5.6 0-8.7-2.8-8.7-8 0-3.2 1.7-6.4 5-9.5 0.8-2 1.5-3.4 2.4-4.3 3.2-10 7.7-18.7 13.3-25.9l0.5-0.4h0.4v-0.6c-0.4-0.4-2.2-2.1-12.2-5.3l-2.3-1.1H515c-17.4 0-25.7-2-26.7-6.6l-0.1-0.4 0.1-0.5c0.7-2.7 1.8-5.6 3.8-5.6h1.8l1.2-1h18l0.4 0.3c0.5 0.5 1 0.7 1.4 0.7h2.4l0.3 0.2c2 0.4 3.3 0.8 4 1.4 19.9 3.4 35.4 5.1 46.1 5.1 23.7 0 44.2-1.4 60.9-4.3 2.3-0.7 5.7-2.4 10.4-5.2l4.2-1.3h0.3c7.1 0.8 11.2 3.7 12.1 8.8v0.3c0 3.7-3.3 6.1-9.7 6.9h-0.2c-4.1 0-4.9 0.6-5 0.7l-0.4 0.4h-0.5c-19.6 1.4-44.6 2.9-74.3 4.3l-4.7 1.1-2.9 0.1c4.9 3 9 4.6 12.2 4.6h0.3l17.6 7.9 0.2 0.4c0.4 0.7 1.7 2.2 6.7 4.8 2.4 1.4 4 2.5 4.9 3.3 4.1 2.3 8.6 6.3 13.4 12.1 1.1 1 1.6 2.1 1.6 3.2 0 0.3 0.3 0.6 0.7 1l0.1 0.2c6.8 8.1 7.5 11.2 7.5 12.8 0 3.3-4.5 4.4-6 4.7h-0.3c-5.4 0-9.9-3.9-13.3-11.6-2.3-3.4-4.2-5.8-5.7-7.2-7.1-6.3-13-10.6-17.6-12.7l-0.2-0.1-0.2-0.2c-0.5-0.5-1-0.7-1.4-0.7h-0.6l-0.4-0.3c-0.5-0.5-1-0.7-1.4-0.7-4.9 0-7.1 9.2-8.1 17-0.8 13.2-4.1 20-10 20.7 0.7 0.3 1.1 0.3 1.4 0.3h1.5v0.7c1 0.4 5.4 1.2 18 2.6 4 0.7 6.7 1.1 8.1 1.1 0.3 0 1.1-0.1 3-0.9 1.8-0.8 3.2-1.2 4.2-1.2h0.3c7.8 1.6 12.3 5.2 13.2 11v0.2c0 2.2-1.3 4.7-7.5 4.7-7.2 0-17.4-1.5-30.3-4.3-12.3-2.1-21.7-3-28-3.1-1 0.7-1.9 1.2-2.9 1.2h-15.6c-0.4 0-0.9 0.1-1.4 0.5l-0.3 0.2h-0.3c-2.3 0.5-3.5 0.9-3.5 1.1 1 0.9 1.1 1.8 1.1 2.7 0 0 0.1 0.8 2.1 3.5l0.1 0.2c7.3 13.1 11 20.6 11.9 22.9l-0.1 0.3v0.3c0 0.3 0.5 0.6 0.9 1l0.3 0.2 0.2 0.2c2.1 3.8 4.5 5.7 7.1 5.7 5.3 0 11.2-1.6 17.4-4.4l0.3-0.4h0.3c0.6 0 2.7-0.3 10-5 13.9-8 17.7-8.8 19.3-8.8 0.2 0 0.3 0.1 0.4 0.1 11-5.7 23.7-13.2 37.8-22.3 2.3-1.4 5.4-4.2 9.3-8.4 5.6-6 7.8-7.4 8.9-7.9l0.2-0.1c6.4-1.9 7.6-2.7 7.8-2.9 1-0.9 2.7-1.7 5.5-2.5 0.6-0.1 1.1-0.2 1.6-0.2 2.2 0 5.1 1.2 6.2 6.8v3.4l-0.9 0.4c-4.5 2.6-10 6.2-16.2 11z m-130-84.9c0.2 0.1 0.4 0.1 0.5 0.1l0.1-0.9c-0.2 0.2-0.5 0.5-0.6 0.8zM886 340.7c0 8.8-2 13.5-6 14.4l-6 1.1h-7.3c-4.3 1-5.5 1-6.2 1-33.5 0-62.3-5.3-85.5-17.3h-3.4c-6.4-0.8-9.6-3.1-9.6-6.8v-0.4l0.1-0.3c1.7-3.1 4.9-6.4 10-10.2l0.3-0.3h0.5c2.3 0 4 1.7 5 5.2 0.6 1.1 1.2 2.1 1.8 2.7 23.6 9.9 46.4 15.1 67.6 16.1h1.2c19 0 21.2-3.5 21.3-5.1-0.8-7.6-4.7-16.8-11.7-27.3-2.5-3-4.1-5.2-4.9-6.7-0.7-1.3-2.2-3-4.5-5-2.6-2.3-4.4-4.2-5.3-5.8l-0.4-0.3v-0.4c0-0.2 0-0.5-0.3-0.8l-3.2-1-0.1 0.2c-1.9-0.9-2.7-0.7-2.9-0.7h-27.6l-0.2-0.2c-2.7-0.4-4.9-0.6-6.4-0.6-1.4 0-1.9 0.3-2 0.4l-0.4 0.5h-0.6c-0.4 0-2-0.1-9.4 0.8l-10.1-0.1-0.6 1.1c-0.2 1.3-1.2 2.1-2.7 2.1-1.3 0-2.5-0.9-3.6-2.7-0.4-0.3-1-0.7-1.6-1.1-12.3 33.3-14.9 43.7-14.9 46.5 0 0.2 0.2 1.7 4.3 5.4l0.2 0.2 0.1 0.3c1.5 3.4 5.9 10.2 13 20.2 3.3 3.7 7.7 9.5 13.3 17.4 2.8 4.4 4.6 7.3 5.5 8.9 0.7-0.1 1.7-0.4 3.6-0.9l3.6-1.1c2.2-0.7 5.7-2.8 10.4-6.3 5.9-4.2 7.3-4.6 8.1-4.6 4.4 0 5.1 2.3 5.1 3.7v0.3c-0.6 3-3.8 8.3-24.9 18.9l6.6 7.9 8.5 13c14 17.9 14.6 20.2 14.7 21.3 0.4 2.5 0 4.2-1.1 5.6-1.3 1.5-3.4 2.1-6.4 2.1h-0.2l-0.2 0.1c-5-1.5-13.5-4.3-25.4-8.6-10.4-4.4-18.5-7.5-24.2-9.4 0.5 0.6 0.9 1.3 1 1.9l3.2 2.9c25.2 21.7 28.1 28.9 28.1 32.5 0 2.5-1.6 3.9-4.2 3.9-0.7 0-1.5-0.1-2.4-0.3l-2.7-1.2-0.2-0.1c-6.5-4.4-14.5-11.9-24.3-22.9-6.3-7.1-11.1-12.1-14.2-14.9-10-6.7-15.3-12-16.1-16v-4.5l0.9-0.4c17.3-8.1 30.6-14.8 39.4-19.8-3.3-6.3-9.1-14.9-17.2-25.5l-0.1-0.2c-4.5-7.4-7.9-12.6-10.3-16.6h-1.6c-0.3 0-1.1 0.1-3 0.9l-0.3 0.1h-3.7c-3.3 1-5.3-0.5-5.3-3.6 0-1.6 0.2-3.7 1.2-6.6v-5.8h1.1s-0.1-0.2-0.1-0.5v-0.6c-5-6.6-11.1-16.3-18.9-28.9-3.2-5.7-5.9-10.4-8.2-13.9-1.7-2.3-3-5-3.8-8.1l-0.1-0.4 0.1-0.4c0.3-1.6 1.4-6.4 4.8-6.6 2.9-0.8 6 0.5 8.7 3.8l0.5 0.4v1.6c0 0.2 0.1 1.2 2.2 5.9l2.2 5.2c0.8 0.9 2.4 3.4 7.2 12 0.8 1.5 2 4 3.6 7.6 2.4 4.3 4.7 7.3 7.1 9 0.4-1.4 1.4-2.7 2.5-3.8l13.2-37.2v-3l-0.2-0.3c1.7-7.7 4.7-12.3 9.2-13.9H773.1c4 0 8.7 1.7 8.7 10 0 0.9-0.4 1.8-1.2 2.7 1.8 0.8 10 2.2 46.6 2.2 11.9 0.8 17.6 1.1 19.1 1.1 1.7 0 5 0.4 9.8 1.1l0.4 0.1 3.5 3.1-0.3 0.9c-1 3.1 0.2 10.1 11.8 25.6 9.7 12.8 14.5 22 14.5 28.1z m-110.7 69.6s-0.7 0.1-2.6 1.8l-0.2 0.1-0.2 0.1c-5.9 2.9-8.3 4.6-9.3 5.5 17.8 8 32.2 13.5 42.7 16.6-8.2-13.8-14.9-22.9-19.9-27.1l-4 1.8-0.3 0.1c-4.4 0.9-5.6 1.1-6.2 1.1z"  horiz-adv-x="1024" />

    
    <glyph glyph-name="s_close" unicode="&#59005;" d="M941.7 18L574 385.7l367.7 367.7c17.4 17.4 17.4 45.6 0 63s-45.6 17.4-63 0L511 448.8 143.3 816.5c-17.4 17.4-45.6 17.4-63 0s-17.4-45.6 0-63L448 385.8 80.2 18c-17.4-17.4-17.4-45.6 0-63s45.6-17.4 63 0L511 322.70000000000005 878.7-45c17.4-17.4 45.6-17.4 63 0s17.4 45.6 0 63z"  horiz-adv-x="1024" />

    
    <glyph glyph-name="ic_a-head" unicode="&#59006;" d="M630 218.8c-3.5 35.6-7 32.7-7 66.1 16.2 9.2 78.8 70 83.4 116 12.7 1.1 33.6 13.8 39.4 64.4 3.5 26.4-8.3 45.1-17.4 47.1 1.2 63.2 35.3 266.2-115.7 280.5-16 24.7-53.2 39.1-103 39.1-199-3.4-238.4-147.8-214.1-320.8-8.6-3.6-20.8-19.6-17.4-47.1 5.8-50.6 26.6-63.2 39.4-64.4 4.6-47.1 67.2-106.8 83.4-114.8 0-33.3-3.6-30.4-7-67.2C354.6 111.9 96.5 167.1 83.8-64h856.4c-7 234.5-270.8 175.9-310.2 282.8z m0 0"  horiz-adv-x="1024" />

    
    <glyph glyph-name="icon-a-common_multip" unicode="&#58936;" d="M846.147368-101.052632H177.852632c-86.231579 0-150.905263 64.673684-150.905264 145.51579V723.536842C26.947368 804.378947 91.621053 869.052632 177.852632 869.052632h673.68421C932.378947 869.052632 997.052632 804.378947 997.052632 723.536842v-673.68421c0-86.231579-64.673684-150.905263-150.905264-150.905264zM177.852632 788.210526c-37.726316 0-64.673684-32.336842-64.673685-70.063158v-673.68421c0-37.726316 32.336842-64.673684 64.673685-64.673684h673.68421c37.726316 0 64.673684 32.336842 64.673684 64.673684V723.536842c0 37.726316-32.336842 70.063158-64.673684 70.063158H177.852632z"  horiz-adv-x="1024" />

    
    <glyph glyph-name="icon-a-common_single" unicode="&#58937;" d="M512 384m-512 0a512 512 0 1 1 1024 0 512 512 0 1 1-1024 0ZM512-128c-284.444444 0-512 227.555556-512 512s227.555556 512 512 512 512-227.555556 512-512-227.555556-512-512-512zM512 810.666667C278.755556 810.666667 85.333333 617.244444 85.333333 384s193.422222-426.666667 426.666667-426.666667 426.666667 193.422222 426.666667 426.666667S745.244444 810.666667 512 810.666667z"  horiz-adv-x="1024" />

    
    <glyph glyph-name="icon-a-common_single1" unicode="&#58938;" d="M512 384m-512 0a512 512 0 1 1 1024 0 512 512 0 1 1-1024 0ZM512-128c-284.444444 0-512 227.555556-512 512s227.555556 512 512 512 512-227.555556 512-512-227.555556-512-512-512zM512 668.444444C352.711111 668.444444 227.555556 543.288889 227.555556 384s125.155556-284.444444 284.444444-284.444444 284.444444 125.155556 284.444444 284.444444-125.155556 284.444444-284.444444 284.444444z"  horiz-adv-x="1024" />

    
    <glyph glyph-name="icon-a-common_multip1" unicode="&#58939;" d="M161.684211 842.105263h700.631578c59.284211 0 107.789474-48.505263 107.789474-107.789474v-700.631578c0-59.284211-48.505263-107.789474-107.789474-107.789474h-700.631578c-59.284211 0-107.789474 48.505263-107.789474 107.789474V734.315789c0 59.284211 48.505263 107.789474 107.789474 107.789474zM862.315789-101.052632h-700.631578C86.231579-101.052632 26.947368-41.768421 26.947368 33.684211V734.315789C26.947368 809.768421 86.231579 869.052632 161.684211 869.052632h700.631578C937.768421 869.052632 997.052632 809.768421 997.052632 734.315789v-700.631578c0-75.452632-59.284211-134.736842-134.736843-134.736843z m-700.631578 916.210527C118.568421 815.157895 80.842105 777.431579 80.842105 734.315789v-700.631578c0-43.115789 37.726316-80.842105 80.842106-80.842106h700.631578c43.115789 0 80.842105 37.726316 80.842106 80.842106V734.315789c0 43.115789-37.726316 80.842105-80.842106 80.842106h-700.631578zM813.810526 529.515789l-344.926315-350.315789c-10.778947-10.778947-21.557895-16.168421-32.336843-16.168421s-21.557895 5.389474-32.336842 10.778947L210.189474 373.221053c-10.778947 10.778947-16.168421 21.557895-16.168421 32.336842 0 26.947368 21.557895 48.505263 43.115789 48.505263 10.778947 0 21.557895-5.389474 32.336842-10.778947l161.684211-167.073685 312.589473 317.978948c16.168421 5.389474 26.947368 10.778947 37.726316 10.778947 26.947368 0 43.115789-21.557895 43.11579-48.505263 5.389474-10.778947 0-21.557895-10.778948-26.947369M436.547368 157.642105c-10.778947 0-26.947368 5.389474-32.336842 16.168421L204.8 373.221053c-10.778947 5.389474-10.778947 21.557895-10.778947 32.336842 0 26.947368 21.557895 48.505263 48.505263 48.505263 10.778947 0 26.947368-5.389474 32.336842-16.168421l161.68421-161.684211 312.589474 317.978948c10.778947 10.778947 21.557895 16.168421 32.336842 16.168421 26.947368 0 48.505263-21.557895 48.505263-48.505263 0-10.778947-5.389474-26.947368-16.168421-37.726316l-344.926315-350.31579c-5.389474-10.778947-21.557895-16.168421-32.336843-16.168421zM242.526316 448.673684c-21.557895 0-43.115789-16.168421-43.11579-43.115789 0-10.778947 5.389474-21.557895 10.778948-26.947369L404.210526 179.2c16.168421-16.168421 43.115789-16.168421 59.284211 0l344.926316 350.315789c5.389474 5.389474 10.778947 16.168421 10.778947 32.336843 5.389474 21.557895-10.778947 37.726316-37.726316 37.726315-10.778947 0-21.557895-5.389474-26.947368-10.778947l-317.978948-323.368421-5.389473 5.389474-161.684211 167.073684c-5.389474 5.389474-16.168421 10.778947-26.947368 10.778947z"  horiz-adv-x="1024" />

    


  </font>
</defs>
</svg>
